<mxfile host="Electron" agent="Mozilla/5.0 (Windows NT 10.0; Win64; x64) AppleWebKit/537.36 (KHTML, like Gecko) draw.io/24.7.8 Chrome/128.0.6613.36 Electron/32.0.1 Safari/537.36" version="24.7.8">
  <diagram name="Page-1" id="-gNGQqq5mkuD4IOFfpTR">
    <mxGraphModel dx="7448" dy="2488" grid="0" gridSize="10" guides="1" tooltips="1" connect="1" arrows="1" fold="1" page="1" pageScale="1" pageWidth="3300" pageHeight="2339" math="0" shadow="0">
      <root>
        <mxCell id="0" />
        <mxCell id="1" parent="0" />
        <mxCell id="zDNcXk9pmCtfYAZ4edZZ-20" style="edgeStyle=orthogonalEdgeStyle;rounded=0;orthogonalLoop=1;jettySize=auto;html=1;strokeColor=#028090;fontColor=#E4FDE1;fillColor=#F45B69;" parent="1" source="zDNcXk9pmCtfYAZ4edZZ-2" target="zDNcXk9pmCtfYAZ4edZZ-19" edge="1">
          <mxGeometry relative="1" as="geometry">
            <Array as="points">
              <mxPoint x="1504" y="1482" />
              <mxPoint x="1504" y="1419" />
            </Array>
          </mxGeometry>
        </mxCell>
        <mxCell id="zDNcXk9pmCtfYAZ4edZZ-2" value="Start (Player Awakens)" style="ellipse;whiteSpace=wrap;html=1;aspect=fixed;labelBackgroundColor=none;fillColor=#60a917;strokeColor=#2D7600;fontColor=#ffffff;" parent="1" vertex="1">
          <mxGeometry x="1380" y="1442" width="80" height="80" as="geometry" />
        </mxCell>
        <mxCell id="zDNcXk9pmCtfYAZ4edZZ-11" style="edgeStyle=orthogonalEdgeStyle;rounded=0;orthogonalLoop=1;jettySize=auto;html=1;strokeColor=#028090;fontColor=#E4FDE1;fillColor=#F45B69;" parent="1" source="zDNcXk9pmCtfYAZ4edZZ-3" target="zDNcXk9pmCtfYAZ4edZZ-4" edge="1">
          <mxGeometry relative="1" as="geometry" />
        </mxCell>
        <mxCell id="zDNcXk9pmCtfYAZ4edZZ-3" value="Try to exit the room" style="rounded=0;whiteSpace=wrap;html=1;strokeColor=#028090;fontColor=#E4FDE1;fillColor=#F45B69;" parent="1" vertex="1">
          <mxGeometry x="804" y="1979" width="120" height="60" as="geometry" />
        </mxCell>
        <mxCell id="zDNcXk9pmCtfYAZ4edZZ-14" style="edgeStyle=orthogonalEdgeStyle;rounded=0;orthogonalLoop=1;jettySize=auto;html=1;strokeColor=#028090;fontColor=#E4FDE1;fillColor=#F45B69;" parent="1" source="zDNcXk9pmCtfYAZ4edZZ-4" target="zDNcXk9pmCtfYAZ4edZZ-12" edge="1">
          <mxGeometry relative="1" as="geometry" />
        </mxCell>
        <mxCell id="zDNcXk9pmCtfYAZ4edZZ-16" value="Yes" style="edgeLabel;html=1;align=center;verticalAlign=middle;resizable=0;points=[];strokeColor=#028090;fontColor=#E4FDE1;fillColor=#F45B69;" parent="zDNcXk9pmCtfYAZ4edZZ-14" vertex="1" connectable="0">
          <mxGeometry x="-0.3496" relative="1" as="geometry">
            <mxPoint x="-7" as="offset" />
          </mxGeometry>
        </mxCell>
        <mxCell id="zDNcXk9pmCtfYAZ4edZZ-18" value="" style="edgeStyle=orthogonalEdgeStyle;rounded=0;orthogonalLoop=1;jettySize=auto;html=1;strokeColor=#028090;fontColor=#E4FDE1;fillColor=#F45B69;" parent="1" source="zDNcXk9pmCtfYAZ4edZZ-4" target="zDNcXk9pmCtfYAZ4edZZ-17" edge="1">
          <mxGeometry relative="1" as="geometry" />
        </mxCell>
        <mxCell id="zDNcXk9pmCtfYAZ4edZZ-22" value="No" style="edgeLabel;html=1;align=center;verticalAlign=middle;resizable=0;points=[];strokeColor=#028090;fontColor=#E4FDE1;fillColor=#F45B69;" parent="zDNcXk9pmCtfYAZ4edZZ-18" vertex="1" connectable="0">
          <mxGeometry x="-0.1438" y="-1" relative="1" as="geometry">
            <mxPoint x="-1" y="-1" as="offset" />
          </mxGeometry>
        </mxCell>
        <mxCell id="zDNcXk9pmCtfYAZ4edZZ-4" value="Does player have wall phase ability?&lt;div&gt;[wallPhase]&lt;/div&gt;" style="rhombus;whiteSpace=wrap;html=1;strokeColor=#028090;fontColor=#E4FDE1;fillColor=#F45B69;" parent="1" vertex="1">
          <mxGeometry x="794" y="2089" width="140" height="140" as="geometry" />
        </mxCell>
        <mxCell id="_ZBO6iIKKOFlCHNLLO7m-54" value="" style="edgeStyle=orthogonalEdgeStyle;rounded=0;orthogonalLoop=1;jettySize=auto;html=1;" edge="1" parent="1" source="zDNcXk9pmCtfYAZ4edZZ-5" target="_ZBO6iIKKOFlCHNLLO7m-53">
          <mxGeometry relative="1" as="geometry" />
        </mxCell>
        <mxCell id="zDNcXk9pmCtfYAZ4edZZ-5" value="Speak to Librarian" style="rounded=0;whiteSpace=wrap;html=1;strokeColor=#028090;fontColor=#E4FDE1;fillColor=#F45B69;" parent="1" vertex="1">
          <mxGeometry x="2079" y="1020" width="120" height="60" as="geometry" />
        </mxCell>
        <mxCell id="zDNcXk9pmCtfYAZ4edZZ-87" value="" style="edgeStyle=orthogonalEdgeStyle;rounded=0;orthogonalLoop=1;jettySize=auto;html=1;strokeColor=#028090;fontColor=#E4FDE1;fillColor=#F45B69;" parent="1" source="zDNcXk9pmCtfYAZ4edZZ-6" target="zDNcXk9pmCtfYAZ4edZZ-86" edge="1">
          <mxGeometry relative="1" as="geometry" />
        </mxCell>
        <mxCell id="zDNcXk9pmCtfYAZ4edZZ-6" value="Speak to Janitor" style="rounded=0;whiteSpace=wrap;html=1;strokeColor=#028090;fontColor=#E4FDE1;fillColor=#F45B69;" parent="1" vertex="1">
          <mxGeometry x="1358" y="877" width="120" height="60" as="geometry" />
        </mxCell>
        <mxCell id="zDNcXk9pmCtfYAZ4edZZ-15" style="edgeStyle=orthogonalEdgeStyle;rounded=0;orthogonalLoop=1;jettySize=auto;html=1;strokeColor=#028090;fontColor=#E4FDE1;fillColor=#F45B69;" parent="1" source="zDNcXk9pmCtfYAZ4edZZ-12" target="zDNcXk9pmCtfYAZ4edZZ-13" edge="1">
          <mxGeometry relative="1" as="geometry" />
        </mxCell>
        <mxCell id="zDNcXk9pmCtfYAZ4edZZ-12" value="Player phases through the fallen bookshelves to access the door" style="rounded=0;whiteSpace=wrap;html=1;strokeColor=#028090;fontColor=#E4FDE1;fillColor=#F45B69;" parent="1" vertex="1">
          <mxGeometry x="551" y="2129" width="120" height="60" as="geometry" />
        </mxCell>
        <mxCell id="zDNcXk9pmCtfYAZ4edZZ-13" value="Game Finished" style="ellipse;whiteSpace=wrap;html=1;aspect=fixed;strokeColor=#6F0000;fontColor=#ffffff;fillColor=#a20025;" parent="1" vertex="1">
          <mxGeometry x="417" y="2119" width="80" height="80" as="geometry" />
        </mxCell>
        <mxCell id="zDNcXk9pmCtfYAZ4edZZ-23" style="edgeStyle=orthogonalEdgeStyle;rounded=0;orthogonalLoop=1;jettySize=auto;html=1;strokeColor=#028090;fontColor=#E4FDE1;fillColor=#F45B69;" parent="1" source="zDNcXk9pmCtfYAZ4edZZ-17" target="zDNcXk9pmCtfYAZ4edZZ-19" edge="1">
          <mxGeometry relative="1" as="geometry">
            <Array as="points">
              <mxPoint x="1060" y="1389" />
            </Array>
          </mxGeometry>
        </mxCell>
        <mxCell id="zDNcXk9pmCtfYAZ4edZZ-17" value="Player Attemps to find a way through the bookshelves to access the door but cannot" style="whiteSpace=wrap;html=1;fillColor=#F45B69;strokeColor=#028090;fontColor=#E4FDE1;" parent="1" vertex="1">
          <mxGeometry x="1000" y="2000" width="120" height="77" as="geometry" />
        </mxCell>
        <mxCell id="zDNcXk9pmCtfYAZ4edZZ-21" style="edgeStyle=orthogonalEdgeStyle;rounded=0;orthogonalLoop=1;jettySize=auto;html=1;strokeColor=#028090;fontColor=#E4FDE1;fillColor=#F45B69;" parent="1" source="zDNcXk9pmCtfYAZ4edZZ-19" target="zDNcXk9pmCtfYAZ4edZZ-3" edge="1">
          <mxGeometry relative="1" as="geometry" />
        </mxCell>
        <mxCell id="zDNcXk9pmCtfYAZ4edZZ-44" value="Exit the Room Route" style="edgeLabel;html=1;align=center;verticalAlign=middle;resizable=0;points=[];strokeColor=#028090;fontColor=#E4FDE1;fillColor=#F45B69;" parent="zDNcXk9pmCtfYAZ4edZZ-21" vertex="1" connectable="0">
          <mxGeometry x="-0.6096" y="1" relative="1" as="geometry">
            <mxPoint x="170" y="-1" as="offset" />
          </mxGeometry>
        </mxCell>
        <mxCell id="zDNcXk9pmCtfYAZ4edZZ-42" style="edgeStyle=orthogonalEdgeStyle;rounded=0;orthogonalLoop=1;jettySize=auto;html=1;strokeColor=#028090;fontColor=#E4FDE1;fillColor=#F45B69;" parent="1" source="zDNcXk9pmCtfYAZ4edZZ-19" target="zDNcXk9pmCtfYAZ4edZZ-24" edge="1">
          <mxGeometry relative="1" as="geometry" />
        </mxCell>
        <mxCell id="zDNcXk9pmCtfYAZ4edZZ-43" value="Haunted Bookshelf Route" style="edgeLabel;html=1;align=center;verticalAlign=middle;resizable=0;points=[];strokeColor=#028090;fontColor=#E4FDE1;fillColor=#F45B69;" parent="zDNcXk9pmCtfYAZ4edZZ-42" vertex="1" connectable="0">
          <mxGeometry x="-0.7703" y="2" relative="1" as="geometry">
            <mxPoint x="31" y="2" as="offset" />
          </mxGeometry>
        </mxCell>
        <mxCell id="zDNcXk9pmCtfYAZ4edZZ-60" style="edgeStyle=orthogonalEdgeStyle;rounded=0;orthogonalLoop=1;jettySize=auto;html=1;strokeColor=#028090;fontColor=#E4FDE1;fillColor=#F45B69;" parent="1" source="zDNcXk9pmCtfYAZ4edZZ-19" target="zDNcXk9pmCtfYAZ4edZZ-25" edge="1">
          <mxGeometry relative="1" as="geometry">
            <Array as="points">
              <mxPoint x="658" y="1295" />
              <mxPoint x="658" y="1565" />
            </Array>
          </mxGeometry>
        </mxCell>
        <mxCell id="zDNcXk9pmCtfYAZ4edZZ-61" value="Pedestal Route" style="edgeLabel;html=1;align=center;verticalAlign=middle;resizable=0;points=[];strokeColor=#028090;fontColor=#E4FDE1;fillColor=#F45B69;" parent="zDNcXk9pmCtfYAZ4edZZ-60" vertex="1" connectable="0">
          <mxGeometry x="-0.6651" relative="1" as="geometry">
            <mxPoint x="27" y="-124" as="offset" />
          </mxGeometry>
        </mxCell>
        <mxCell id="zDNcXk9pmCtfYAZ4edZZ-84" style="edgeStyle=orthogonalEdgeStyle;rounded=0;orthogonalLoop=1;jettySize=auto;html=1;strokeColor=#028090;fontColor=#E4FDE1;fillColor=#F45B69;" parent="1" source="zDNcXk9pmCtfYAZ4edZZ-19" target="zDNcXk9pmCtfYAZ4edZZ-6" edge="1">
          <mxGeometry relative="1" as="geometry">
            <Array as="points">
              <mxPoint x="1712" y="907" />
            </Array>
          </mxGeometry>
        </mxCell>
        <mxCell id="zDNcXk9pmCtfYAZ4edZZ-85" value="Janitor Route" style="edgeLabel;html=1;align=center;verticalAlign=middle;resizable=0;points=[];strokeColor=#028090;fontColor=#E4FDE1;fillColor=#F45B69;" parent="zDNcXk9pmCtfYAZ4edZZ-84" vertex="1" connectable="0">
          <mxGeometry x="-0.7708" relative="1" as="geometry">
            <mxPoint as="offset" />
          </mxGeometry>
        </mxCell>
        <mxCell id="_ZBO6iIKKOFlCHNLLO7m-36" style="edgeStyle=orthogonalEdgeStyle;rounded=0;orthogonalLoop=1;jettySize=auto;html=1;" edge="1" parent="1" source="zDNcXk9pmCtfYAZ4edZZ-19" target="zDNcXk9pmCtfYAZ4edZZ-5">
          <mxGeometry relative="1" as="geometry">
            <Array as="points">
              <mxPoint x="1828" y="1045" />
            </Array>
          </mxGeometry>
        </mxCell>
        <mxCell id="_ZBO6iIKKOFlCHNLLO7m-37" value="Librarian Route" style="edgeLabel;html=1;align=center;verticalAlign=middle;resizable=0;points=[];" vertex="1" connectable="0" parent="_ZBO6iIKKOFlCHNLLO7m-36">
          <mxGeometry x="-0.9008" y="-1" relative="1" as="geometry">
            <mxPoint as="offset" />
          </mxGeometry>
        </mxCell>
        <mxCell id="_ZBO6iIKKOFlCHNLLO7m-41" style="edgeStyle=orthogonalEdgeStyle;rounded=0;orthogonalLoop=1;jettySize=auto;html=1;" edge="1" parent="1" source="zDNcXk9pmCtfYAZ4edZZ-19" target="_ZBO6iIKKOFlCHNLLO7m-40">
          <mxGeometry relative="1" as="geometry">
            <Array as="points">
              <mxPoint x="1609" y="1670" />
            </Array>
          </mxGeometry>
        </mxCell>
        <mxCell id="_ZBO6iIKKOFlCHNLLO7m-42" value="Mirror Route" style="edgeLabel;html=1;align=center;verticalAlign=middle;resizable=0;points=[];" vertex="1" connectable="0" parent="_ZBO6iIKKOFlCHNLLO7m-41">
          <mxGeometry x="-0.6463" y="2" relative="1" as="geometry">
            <mxPoint as="offset" />
          </mxGeometry>
        </mxCell>
        <mxCell id="_ZBO6iIKKOFlCHNLLO7m-102" style="edgeStyle=orthogonalEdgeStyle;rounded=0;orthogonalLoop=1;jettySize=auto;html=1;" edge="1" parent="1" source="zDNcXk9pmCtfYAZ4edZZ-19" target="_ZBO6iIKKOFlCHNLLO7m-101">
          <mxGeometry relative="1" as="geometry">
            <Array as="points">
              <mxPoint x="1769" y="860" />
              <mxPoint x="1769" y="860" />
            </Array>
          </mxGeometry>
        </mxCell>
        <mxCell id="_ZBO6iIKKOFlCHNLLO7m-103" value="Lantern Route" style="edgeLabel;html=1;align=center;verticalAlign=middle;resizable=0;points=[];" vertex="1" connectable="0" parent="_ZBO6iIKKOFlCHNLLO7m-102">
          <mxGeometry x="-0.5627" relative="1" as="geometry">
            <mxPoint as="offset" />
          </mxGeometry>
        </mxCell>
        <mxCell id="zDNcXk9pmCtfYAZ4edZZ-19" value="&lt;font style=&quot;font-size: 27px;&quot;&gt;Player is idle in the room&lt;/font&gt;" style="rounded=0;whiteSpace=wrap;html=1;strokeColor=#006EAF;fontColor=#ffffff;fillColor=#1ba1e2;" parent="1" vertex="1">
          <mxGeometry x="1548" y="1259" width="307" height="209" as="geometry" />
        </mxCell>
        <mxCell id="zDNcXk9pmCtfYAZ4edZZ-31" value="" style="edgeStyle=orthogonalEdgeStyle;rounded=0;orthogonalLoop=1;jettySize=auto;html=1;strokeColor=#028090;fontColor=#E4FDE1;fillColor=#F45B69;" parent="1" source="zDNcXk9pmCtfYAZ4edZZ-24" target="zDNcXk9pmCtfYAZ4edZZ-30" edge="1">
          <mxGeometry relative="1" as="geometry" />
        </mxCell>
        <mxCell id="zDNcXk9pmCtfYAZ4edZZ-24" value="Player interacts with the haunted bookshelf" style="rounded=0;whiteSpace=wrap;html=1;strokeColor=#028090;fontColor=#E4FDE1;fillColor=#F45B69;" parent="1" vertex="1">
          <mxGeometry x="2199" y="1638" width="120" height="60" as="geometry" />
        </mxCell>
        <mxCell id="zDNcXk9pmCtfYAZ4edZZ-70" style="edgeStyle=orthogonalEdgeStyle;rounded=0;orthogonalLoop=1;jettySize=auto;html=1;strokeColor=#028090;fontColor=#E4FDE1;fillColor=#F45B69;" parent="1" source="zDNcXk9pmCtfYAZ4edZZ-25" target="zDNcXk9pmCtfYAZ4edZZ-66" edge="1">
          <mxGeometry relative="1" as="geometry" />
        </mxCell>
        <mxCell id="zDNcXk9pmCtfYAZ4edZZ-25" value="Interact with pedestal" style="rounded=0;whiteSpace=wrap;html=1;strokeColor=#028090;fontColor=#E4FDE1;fillColor=#F45B69;" parent="1" vertex="1">
          <mxGeometry x="493" y="1535" width="120" height="60" as="geometry" />
        </mxCell>
        <mxCell id="zDNcXk9pmCtfYAZ4edZZ-33" value="" style="edgeStyle=orthogonalEdgeStyle;rounded=0;orthogonalLoop=1;jettySize=auto;html=1;strokeColor=#028090;fontColor=#E4FDE1;fillColor=#F45B69;" parent="1" source="zDNcXk9pmCtfYAZ4edZZ-30" target="zDNcXk9pmCtfYAZ4edZZ-32" edge="1">
          <mxGeometry relative="1" as="geometry" />
        </mxCell>
        <mxCell id="zDNcXk9pmCtfYAZ4edZZ-35" value="No" style="edgeLabel;html=1;align=center;verticalAlign=middle;resizable=0;points=[];strokeColor=#028090;fontColor=#E4FDE1;fillColor=#F45B69;" parent="zDNcXk9pmCtfYAZ4edZZ-33" vertex="1" connectable="0">
          <mxGeometry x="-0.1385" y="-1" relative="1" as="geometry">
            <mxPoint x="-1" y="-1" as="offset" />
          </mxGeometry>
        </mxCell>
        <mxCell id="zDNcXk9pmCtfYAZ4edZZ-38" value="" style="edgeStyle=orthogonalEdgeStyle;rounded=0;orthogonalLoop=1;jettySize=auto;html=1;strokeColor=#028090;fontColor=#E4FDE1;fillColor=#F45B69;" parent="1" source="zDNcXk9pmCtfYAZ4edZZ-30" target="zDNcXk9pmCtfYAZ4edZZ-55" edge="1">
          <mxGeometry relative="1" as="geometry" />
        </mxCell>
        <mxCell id="zDNcXk9pmCtfYAZ4edZZ-39" value="Yes" style="edgeLabel;html=1;align=center;verticalAlign=middle;resizable=0;points=[];strokeColor=#028090;fontColor=#E4FDE1;fillColor=#F45B69;" parent="zDNcXk9pmCtfYAZ4edZZ-38" vertex="1" connectable="0">
          <mxGeometry x="-0.0829" relative="1" as="geometry">
            <mxPoint y="-2" as="offset" />
          </mxGeometry>
        </mxCell>
        <mxCell id="zDNcXk9pmCtfYAZ4edZZ-30" value="Has the player interacted with the Ghostly Janitor yet? [unlockedBookPuzzle flag]" style="rhombus;whiteSpace=wrap;html=1;fillColor=#F45B69;strokeColor=#028090;fontColor=#E4FDE1;rounded=0;" parent="1" vertex="1">
          <mxGeometry x="2193" y="1755" width="133" height="133" as="geometry" />
        </mxCell>
        <mxCell id="zDNcXk9pmCtfYAZ4edZZ-34" style="edgeStyle=orthogonalEdgeStyle;rounded=0;orthogonalLoop=1;jettySize=auto;html=1;strokeColor=#028090;fontColor=#E4FDE1;fillColor=#F45B69;" parent="1" source="zDNcXk9pmCtfYAZ4edZZ-32" target="zDNcXk9pmCtfYAZ4edZZ-19" edge="1">
          <mxGeometry relative="1" as="geometry" />
        </mxCell>
        <mxCell id="zDNcXk9pmCtfYAZ4edZZ-32" value="The player is unable to interact with the haunted bookshelf" style="whiteSpace=wrap;html=1;fillColor=#F45B69;strokeColor=#028090;fontColor=#E4FDE1;rounded=0;" parent="1" vertex="1">
          <mxGeometry x="1996" y="1791.5" width="120" height="60" as="geometry" />
        </mxCell>
        <mxCell id="zDNcXk9pmCtfYAZ4edZZ-41" value="" style="edgeStyle=orthogonalEdgeStyle;rounded=0;orthogonalLoop=1;jettySize=auto;html=1;strokeColor=#028090;fontColor=#E4FDE1;fillColor=#F45B69;" parent="1" source="zDNcXk9pmCtfYAZ4edZZ-37" target="zDNcXk9pmCtfYAZ4edZZ-40" edge="1">
          <mxGeometry relative="1" as="geometry" />
        </mxCell>
        <mxCell id="zDNcXk9pmCtfYAZ4edZZ-37" value="Player is prompted to arrange each color book one at a time" style="whiteSpace=wrap;html=1;fillColor=#F45B69;strokeColor=#028090;fontColor=#E4FDE1;rounded=0;" parent="1" vertex="1">
          <mxGeometry x="2594" y="1791.5" width="120" height="60" as="geometry" />
        </mxCell>
        <mxCell id="zDNcXk9pmCtfYAZ4edZZ-46" value="" style="edgeStyle=orthogonalEdgeStyle;rounded=0;orthogonalLoop=1;jettySize=auto;html=1;strokeColor=#028090;fontColor=#E4FDE1;fillColor=#F45B69;" parent="1" source="zDNcXk9pmCtfYAZ4edZZ-40" target="zDNcXk9pmCtfYAZ4edZZ-45" edge="1">
          <mxGeometry relative="1" as="geometry" />
        </mxCell>
        <mxCell id="zDNcXk9pmCtfYAZ4edZZ-48" value="No" style="edgeLabel;html=1;align=center;verticalAlign=middle;resizable=0;points=[];strokeColor=#028090;fontColor=#E4FDE1;fillColor=#F45B69;" parent="zDNcXk9pmCtfYAZ4edZZ-46" vertex="1" connectable="0">
          <mxGeometry x="-0.2752" y="-1" relative="1" as="geometry">
            <mxPoint x="-35" y="1" as="offset" />
          </mxGeometry>
        </mxCell>
        <mxCell id="zDNcXk9pmCtfYAZ4edZZ-50" value="" style="edgeStyle=orthogonalEdgeStyle;rounded=0;orthogonalLoop=1;jettySize=auto;html=1;strokeColor=#028090;fontColor=#E4FDE1;fillColor=#F45B69;" parent="1" source="zDNcXk9pmCtfYAZ4edZZ-40" target="zDNcXk9pmCtfYAZ4edZZ-49" edge="1">
          <mxGeometry relative="1" as="geometry" />
        </mxCell>
        <mxCell id="zDNcXk9pmCtfYAZ4edZZ-51" value="Yes" style="edgeLabel;html=1;align=center;verticalAlign=middle;resizable=0;points=[];strokeColor=#028090;fontColor=#E4FDE1;fillColor=#F45B69;" parent="zDNcXk9pmCtfYAZ4edZZ-50" vertex="1" connectable="0">
          <mxGeometry x="-0.2227" y="3" relative="1" as="geometry">
            <mxPoint x="1" y="-9" as="offset" />
          </mxGeometry>
        </mxCell>
        <mxCell id="zDNcXk9pmCtfYAZ4edZZ-40" value="Player picks red, blue, green, then yellow" style="rhombus;whiteSpace=wrap;html=1;fillColor=#F45B69;strokeColor=#028090;fontColor=#E4FDE1;rounded=0;" parent="1" vertex="1">
          <mxGeometry x="2595.75" y="1922" width="116.5" height="105.5" as="geometry" />
        </mxCell>
        <mxCell id="zDNcXk9pmCtfYAZ4edZZ-47" style="edgeStyle=orthogonalEdgeStyle;rounded=0;orthogonalLoop=1;jettySize=auto;html=1;strokeColor=#028090;fontColor=#E4FDE1;fillColor=#F45B69;" parent="1" source="zDNcXk9pmCtfYAZ4edZZ-45" target="zDNcXk9pmCtfYAZ4edZZ-19" edge="1">
          <mxGeometry relative="1" as="geometry" />
        </mxCell>
        <mxCell id="zDNcXk9pmCtfYAZ4edZZ-45" value="&quot;You arranged the books, but nothing happened&quot;" style="whiteSpace=wrap;html=1;fillColor=#F45B69;strokeColor=#028090;fontColor=#E4FDE1;rounded=0;" parent="1" vertex="1">
          <mxGeometry x="2216" y="1944.75" width="120" height="60" as="geometry" />
        </mxCell>
        <mxCell id="zDNcXk9pmCtfYAZ4edZZ-52" style="edgeStyle=orthogonalEdgeStyle;rounded=0;orthogonalLoop=1;jettySize=auto;html=1;strokeColor=#028090;fontColor=#E4FDE1;fillColor=#F45B69;" parent="1" source="zDNcXk9pmCtfYAZ4edZZ-49" target="zDNcXk9pmCtfYAZ4edZZ-19" edge="1">
          <mxGeometry relative="1" as="geometry" />
        </mxCell>
        <mxCell id="zDNcXk9pmCtfYAZ4edZZ-49" value="&quot;You arranged the books, and an ancient Cursed Book falls into your hands&quot; [hasHauntedBook flag]" style="whiteSpace=wrap;html=1;fillColor=#F45B69;strokeColor=#028090;fontColor=#E4FDE1;rounded=0;" parent="1" vertex="1">
          <mxGeometry x="2594" y="2073" width="120" height="98" as="geometry" />
        </mxCell>
        <mxCell id="zDNcXk9pmCtfYAZ4edZZ-53" value="&lt;font style=&quot;font-size: 42px;&quot;&gt;The great big list of FLAGS&lt;/font&gt;&lt;div style=&quot;font-size: 17px;&quot;&gt;&lt;font style=&quot;font-size: 17px;&quot;&gt;&lt;table style=&quot;&quot;&gt;&lt;tbody&gt;&lt;tr&gt;&lt;td&gt;TYPE&lt;/td&gt;&lt;td&gt;NAME&lt;/td&gt;&lt;td&gt;RANGE&lt;/td&gt;&lt;/tr&gt;&lt;tr&gt;&lt;td&gt;bool&lt;/td&gt;&lt;td&gt;unlockedBookPuzzle&lt;br&gt;&lt;/td&gt;&lt;td&gt;T/F&lt;/td&gt;&lt;/tr&gt;&lt;tr&gt;&lt;td&gt;bool&lt;/td&gt;&lt;td&gt;hasHauntedBook&lt;br&gt;&lt;/td&gt;&lt;td&gt;T/F&lt;/td&gt;&lt;/tr&gt;&lt;tr&gt;&lt;td&gt;bool&lt;/td&gt;&lt;td&gt;wallPhase&lt;/td&gt;&lt;td&gt;T/F&lt;/td&gt;&lt;/tr&gt;&lt;tr&gt;&lt;td&gt;bool&lt;/td&gt;&lt;td&gt;interactJanitor&lt;/td&gt;&lt;td&gt;T/F&lt;/td&gt;&lt;/tr&gt;&lt;tr&gt;&lt;td&gt;int&lt;/td&gt;&lt;td&gt;janitorDialogue&lt;/td&gt;&lt;td&gt;[0,2]&lt;/td&gt;&lt;/tr&gt;&lt;tr&gt;&lt;td&gt;int&lt;/td&gt;&lt;td&gt;janitorDialogueHint&lt;/td&gt;&lt;td&gt;[0-2]&lt;/td&gt;&lt;/tr&gt;&lt;tr&gt;&lt;td&gt;bool&lt;/td&gt;&lt;td&gt;hauntedBookshelf&lt;/td&gt;&lt;td&gt;T/F&lt;/td&gt;&lt;/tr&gt;&lt;tr&gt;&lt;td&gt;bool&lt;/td&gt;&lt;td&gt;interactMirror&lt;/td&gt;&lt;td&gt;T/F&lt;/td&gt;&lt;/tr&gt;&lt;tr&gt;&lt;td&gt;bool&lt;/td&gt;&lt;td&gt;lanternLit&lt;/td&gt;&lt;td&gt;T/F&lt;/td&gt;&lt;/tr&gt;&lt;tr&gt;&lt;td&gt;int&lt;/td&gt;&lt;td&gt;librarianDialogueHint&lt;/td&gt;&lt;td&gt;[0-2]&lt;/td&gt;&lt;/tr&gt;&lt;tr&gt;&lt;td&gt;int&lt;/td&gt;&lt;td&gt;librarianDialogue&lt;/td&gt;&lt;td&gt;[0,2-3]&lt;/td&gt;&lt;/tr&gt;&lt;tr&gt;&lt;td&gt;bool&lt;/td&gt;&lt;td&gt;spiritLanternInteractable&lt;/td&gt;&lt;td&gt;T/F&lt;/td&gt;&lt;/tr&gt;&lt;tr&gt;&lt;td&gt;bool&lt;/td&gt;&lt;td&gt;pedestalOccupied&lt;/td&gt;&lt;td&gt;T/F&lt;/td&gt;&lt;/tr&gt;&lt;tr&gt;&lt;td&gt;&lt;br&gt;&lt;/td&gt;&lt;td&gt;&lt;br&gt;&lt;/td&gt;&lt;td&gt;&lt;br&gt;&lt;/td&gt;&lt;/tr&gt;&lt;tr&gt;&lt;td&gt;&lt;br&gt;&lt;/td&gt;&lt;td&gt;&lt;br&gt;&lt;/td&gt;&lt;td&gt;&lt;br&gt;&lt;/td&gt;&lt;/tr&gt;&lt;tr&gt;&lt;td&gt;&lt;br&gt;&lt;/td&gt;&lt;td&gt;&lt;br&gt;&lt;/td&gt;&lt;td&gt;&lt;br&gt;&lt;/td&gt;&lt;/tr&gt;&lt;tr&gt;&lt;td&gt;&lt;br&gt;&lt;/td&gt;&lt;td&gt;&lt;br&gt;&lt;/td&gt;&lt;td&gt;&lt;br&gt;&lt;/td&gt;&lt;/tr&gt;&lt;tr&gt;&lt;td&gt;&lt;br&gt;&lt;/td&gt;&lt;td&gt;&lt;br&gt;&lt;/td&gt;&lt;td&gt;&lt;br&gt;&lt;/td&gt;&lt;/tr&gt;&lt;/tbody&gt;&lt;/table&gt;&lt;/font&gt;&lt;/div&gt;" style="rounded=0;whiteSpace=wrap;html=1;strokeColor=#3700CC;fontColor=#ffffff;fillColor=#6a00ff;align=center;" parent="1" vertex="1">
          <mxGeometry x="1051.14" y="222" width="311.86" height="559" as="geometry" />
        </mxCell>
        <mxCell id="zDNcXk9pmCtfYAZ4edZZ-56" style="edgeStyle=orthogonalEdgeStyle;rounded=0;orthogonalLoop=1;jettySize=auto;html=1;strokeColor=#028090;fontColor=#E4FDE1;fillColor=#F45B69;" parent="1" source="zDNcXk9pmCtfYAZ4edZZ-55" target="zDNcXk9pmCtfYAZ4edZZ-32" edge="1">
          <mxGeometry relative="1" as="geometry">
            <Array as="points">
              <mxPoint x="2460" y="1907" />
              <mxPoint x="2056" y="1907" />
            </Array>
          </mxGeometry>
        </mxCell>
        <mxCell id="zDNcXk9pmCtfYAZ4edZZ-57" value="True" style="edgeLabel;html=1;align=center;verticalAlign=middle;resizable=0;points=[];strokeColor=#028090;fontColor=#E4FDE1;fillColor=#F45B69;" parent="zDNcXk9pmCtfYAZ4edZZ-56" vertex="1" connectable="0">
          <mxGeometry x="-0.9131" y="-1" relative="1" as="geometry">
            <mxPoint as="offset" />
          </mxGeometry>
        </mxCell>
        <mxCell id="zDNcXk9pmCtfYAZ4edZZ-58" style="edgeStyle=orthogonalEdgeStyle;rounded=0;orthogonalLoop=1;jettySize=auto;html=1;strokeColor=#028090;fontColor=#E4FDE1;fillColor=#F45B69;" parent="1" source="zDNcXk9pmCtfYAZ4edZZ-55" target="zDNcXk9pmCtfYAZ4edZZ-37" edge="1">
          <mxGeometry relative="1" as="geometry" />
        </mxCell>
        <mxCell id="zDNcXk9pmCtfYAZ4edZZ-59" value="False" style="edgeLabel;html=1;align=center;verticalAlign=middle;resizable=0;points=[];strokeColor=#028090;fontColor=#E4FDE1;fillColor=#F45B69;" parent="zDNcXk9pmCtfYAZ4edZZ-58" vertex="1" connectable="0">
          <mxGeometry x="-0.6223" y="1" relative="1" as="geometry">
            <mxPoint x="22" y="1" as="offset" />
          </mxGeometry>
        </mxCell>
        <mxCell id="zDNcXk9pmCtfYAZ4edZZ-55" value="Check hasHauntedBook flag" style="rhombus;whiteSpace=wrap;html=1;strokeColor=#028090;fontColor=#E4FDE1;fillColor=#F45B69;" parent="1" vertex="1">
          <mxGeometry x="2410" y="1774.25" width="100" height="94.5" as="geometry" />
        </mxCell>
        <mxCell id="zDNcXk9pmCtfYAZ4edZZ-73" style="edgeStyle=orthogonalEdgeStyle;rounded=0;orthogonalLoop=1;jettySize=auto;html=1;strokeColor=#028090;fontColor=#E4FDE1;fillColor=#F45B69;" parent="1" source="zDNcXk9pmCtfYAZ4edZZ-62" target="zDNcXk9pmCtfYAZ4edZZ-64" edge="1">
          <mxGeometry relative="1" as="geometry" />
        </mxCell>
        <mxCell id="zDNcXk9pmCtfYAZ4edZZ-74" value="No" style="edgeLabel;html=1;align=center;verticalAlign=middle;resizable=0;points=[];strokeColor=#028090;fontColor=#E4FDE1;fillColor=#F45B69;" parent="zDNcXk9pmCtfYAZ4edZZ-73" vertex="1" connectable="0">
          <mxGeometry x="-0.083" relative="1" as="geometry">
            <mxPoint as="offset" />
          </mxGeometry>
        </mxCell>
        <mxCell id="zDNcXk9pmCtfYAZ4edZZ-81" value="" style="edgeStyle=orthogonalEdgeStyle;rounded=0;orthogonalLoop=1;jettySize=auto;html=1;strokeColor=#028090;fontColor=#E4FDE1;fillColor=#F45B69;" parent="1" source="zDNcXk9pmCtfYAZ4edZZ-62" target="zDNcXk9pmCtfYAZ4edZZ-80" edge="1">
          <mxGeometry relative="1" as="geometry" />
        </mxCell>
        <mxCell id="zDNcXk9pmCtfYAZ4edZZ-83" value="Yes" style="edgeLabel;html=1;align=center;verticalAlign=middle;resizable=0;points=[];strokeColor=#028090;fontColor=#E4FDE1;fillColor=#F45B69;" parent="zDNcXk9pmCtfYAZ4edZZ-81" vertex="1" connectable="0">
          <mxGeometry x="-0.2037" y="-1" relative="1" as="geometry">
            <mxPoint y="1" as="offset" />
          </mxGeometry>
        </mxCell>
        <mxCell id="zDNcXk9pmCtfYAZ4edZZ-62" value="Does the player have the Cursed Book? [hasHauntedBook]" style="rhombus;whiteSpace=wrap;html=1;fillColor=#F45B69;strokeColor=#028090;fontColor=#E4FDE1;rounded=0;" parent="1" vertex="1">
          <mxGeometry x="289.5" y="1293" width="135" height="132" as="geometry" />
        </mxCell>
        <mxCell id="zDNcXk9pmCtfYAZ4edZZ-75" style="edgeStyle=orthogonalEdgeStyle;rounded=0;orthogonalLoop=1;jettySize=auto;html=1;entryX=0.25;entryY=0;entryDx=0;entryDy=0;strokeColor=#028090;fontColor=#E4FDE1;fillColor=#F45B69;" parent="1" source="zDNcXk9pmCtfYAZ4edZZ-64" target="zDNcXk9pmCtfYAZ4edZZ-19" edge="1">
          <mxGeometry relative="1" as="geometry">
            <Array as="points">
              <mxPoint x="553" y="1138" />
              <mxPoint x="1625" y="1138" />
            </Array>
          </mxGeometry>
        </mxCell>
        <mxCell id="zDNcXk9pmCtfYAZ4edZZ-64" value="&quot;It seems like something could go here&quot;" style="whiteSpace=wrap;html=1;fillColor=#F45B69;strokeColor=#028090;fontColor=#E4FDE1;rounded=0;" parent="1" vertex="1">
          <mxGeometry x="493" y="1329" width="120" height="60" as="geometry" />
        </mxCell>
        <mxCell id="zDNcXk9pmCtfYAZ4edZZ-71" style="edgeStyle=orthogonalEdgeStyle;rounded=0;orthogonalLoop=1;jettySize=auto;html=1;strokeColor=#028090;fontColor=#E4FDE1;fillColor=#F45B69;" parent="1" source="zDNcXk9pmCtfYAZ4edZZ-66" target="zDNcXk9pmCtfYAZ4edZZ-62" edge="1">
          <mxGeometry relative="1" as="geometry" />
        </mxCell>
        <mxCell id="zDNcXk9pmCtfYAZ4edZZ-72" value="No" style="edgeLabel;html=1;align=center;verticalAlign=middle;resizable=0;points=[];strokeColor=#028090;fontColor=#E4FDE1;fillColor=#F45B69;" parent="zDNcXk9pmCtfYAZ4edZZ-71" vertex="1" connectable="0">
          <mxGeometry x="0.0354" y="-2" relative="1" as="geometry">
            <mxPoint x="-1" y="2" as="offset" />
          </mxGeometry>
        </mxCell>
        <mxCell id="zDNcXk9pmCtfYAZ4edZZ-77" value="" style="edgeStyle=orthogonalEdgeStyle;rounded=0;orthogonalLoop=1;jettySize=auto;html=1;strokeColor=#028090;fontColor=#E4FDE1;fillColor=#F45B69;" parent="1" source="zDNcXk9pmCtfYAZ4edZZ-66" target="zDNcXk9pmCtfYAZ4edZZ-76" edge="1">
          <mxGeometry relative="1" as="geometry" />
        </mxCell>
        <mxCell id="zDNcXk9pmCtfYAZ4edZZ-78" value="Yes" style="edgeLabel;html=1;align=center;verticalAlign=middle;resizable=0;points=[];strokeColor=#028090;fontColor=#E4FDE1;fillColor=#F45B69;" parent="zDNcXk9pmCtfYAZ4edZZ-77" vertex="1" connectable="0">
          <mxGeometry x="-0.1105" y="2" relative="1" as="geometry">
            <mxPoint as="offset" />
          </mxGeometry>
        </mxCell>
        <mxCell id="zDNcXk9pmCtfYAZ4edZZ-66" value="Did the player already place down the Cursed Book?&lt;div&gt;[pedestalComplete]&lt;/div&gt;" style="rhombus;whiteSpace=wrap;html=1;fillColor=#F45B69;strokeColor=#028090;fontColor=#E4FDE1;rounded=0;" parent="1" vertex="1">
          <mxGeometry x="284" y="1492" width="146" height="146" as="geometry" />
        </mxCell>
        <mxCell id="zDNcXk9pmCtfYAZ4edZZ-79" style="edgeStyle=orthogonalEdgeStyle;rounded=0;orthogonalLoop=1;jettySize=auto;html=1;entryX=0.25;entryY=0;entryDx=0;entryDy=0;strokeColor=#028090;fontColor=#E4FDE1;fillColor=#F45B69;" parent="1" source="zDNcXk9pmCtfYAZ4edZZ-76" target="zDNcXk9pmCtfYAZ4edZZ-19" edge="1">
          <mxGeometry relative="1" as="geometry">
            <Array as="points">
              <mxPoint x="131" y="1138" />
              <mxPoint x="1625" y="1138" />
            </Array>
          </mxGeometry>
        </mxCell>
        <mxCell id="zDNcXk9pmCtfYAZ4edZZ-76" value="&quot;The Cursed Book smokes and sizzles...best not to touch it&quot;" style="whiteSpace=wrap;html=1;fillColor=#F45B69;strokeColor=#028090;fontColor=#E4FDE1;rounded=0;" parent="1" vertex="1">
          <mxGeometry x="71" y="1535" width="120" height="60" as="geometry" />
        </mxCell>
        <mxCell id="zDNcXk9pmCtfYAZ4edZZ-82" style="edgeStyle=orthogonalEdgeStyle;rounded=0;orthogonalLoop=1;jettySize=auto;html=1;entryX=0.25;entryY=0;entryDx=0;entryDy=0;strokeColor=#028090;fontColor=#E4FDE1;fillColor=#F45B69;" parent="1" source="zDNcXk9pmCtfYAZ4edZZ-80" target="zDNcXk9pmCtfYAZ4edZZ-19" edge="1">
          <mxGeometry relative="1" as="geometry">
            <Array as="points">
              <mxPoint x="357" y="1138" />
              <mxPoint x="1625" y="1138" />
            </Array>
          </mxGeometry>
        </mxCell>
        <mxCell id="zDNcXk9pmCtfYAZ4edZZ-80" value="Player places the Cursed Book.&lt;div&gt;[hasHauntedBook]&lt;/div&gt;&lt;div&gt;[pedestalComplete]&lt;/div&gt;" style="whiteSpace=wrap;html=1;fillColor=#F45B69;strokeColor=#028090;fontColor=#E4FDE1;rounded=0;" parent="1" vertex="1">
          <mxGeometry x="297" y="1173" width="120" height="60" as="geometry" />
        </mxCell>
        <mxCell id="zDNcXk9pmCtfYAZ4edZZ-93" style="edgeStyle=orthogonalEdgeStyle;rounded=0;orthogonalLoop=1;jettySize=auto;html=1;strokeColor=#028090;fontColor=#E4FDE1;fillColor=#F45B69;" parent="1" source="zDNcXk9pmCtfYAZ4edZZ-86" target="zDNcXk9pmCtfYAZ4edZZ-92" edge="1">
          <mxGeometry relative="1" as="geometry" />
        </mxCell>
        <mxCell id="zDNcXk9pmCtfYAZ4edZZ-86" value="The player has now interacted with the Janitor.&lt;div&gt;[interactJanitor]&lt;/div&gt;" style="whiteSpace=wrap;html=1;fillColor=#F45B69;strokeColor=#028090;fontColor=#E4FDE1;rounded=0;" parent="1" vertex="1">
          <mxGeometry x="1158" y="877" width="120" height="60" as="geometry" />
        </mxCell>
        <mxCell id="zDNcXk9pmCtfYAZ4edZZ-91" value="" style="edgeStyle=orthogonalEdgeStyle;rounded=0;orthogonalLoop=1;jettySize=auto;html=1;strokeColor=#028090;fontColor=#E4FDE1;fillColor=#F45B69;" parent="1" source="zDNcXk9pmCtfYAZ4edZZ-88" target="zDNcXk9pmCtfYAZ4edZZ-90" edge="1">
          <mxGeometry relative="1" as="geometry" />
        </mxCell>
        <mxCell id="zDNcXk9pmCtfYAZ4edZZ-88" value="Initial Dialogue Option" style="whiteSpace=wrap;html=1;fillColor=#F45B69;strokeColor=#028090;fontColor=#E4FDE1;rounded=0;" parent="1" vertex="1">
          <mxGeometry x="135" y="964" width="120" height="60" as="geometry" />
        </mxCell>
        <mxCell id="zDNcXk9pmCtfYAZ4edZZ-90" value="Unlocks Dialogue Option 2&lt;div&gt;[janitorDialogue = 2]&lt;/div&gt;" style="whiteSpace=wrap;html=1;fillColor=#F45B69;strokeColor=#028090;fontColor=#E4FDE1;rounded=0;" parent="1" vertex="1">
          <mxGeometry x="-65" y="964" width="120" height="60" as="geometry" />
        </mxCell>
        <mxCell id="zDNcXk9pmCtfYAZ4edZZ-94" value="" style="edgeStyle=orthogonalEdgeStyle;rounded=0;orthogonalLoop=1;jettySize=auto;html=1;strokeColor=#028090;fontColor=#E4FDE1;fillColor=#F45B69;" parent="1" source="zDNcXk9pmCtfYAZ4edZZ-86" target="zDNcXk9pmCtfYAZ4edZZ-92" edge="1">
          <mxGeometry relative="1" as="geometry">
            <mxPoint x="1158" y="907" as="sourcePoint" />
            <mxPoint x="934" y="907" as="targetPoint" />
          </mxGeometry>
        </mxCell>
        <mxCell id="zDNcXk9pmCtfYAZ4edZZ-97" style="edgeStyle=orthogonalEdgeStyle;rounded=0;orthogonalLoop=1;jettySize=auto;html=1;strokeColor=#028090;fontColor=#E4FDE1;fillColor=#F45B69;" parent="1" source="zDNcXk9pmCtfYAZ4edZZ-92" target="zDNcXk9pmCtfYAZ4edZZ-19" edge="1">
          <mxGeometry relative="1" as="geometry">
            <Array as="points">
              <mxPoint x="1057" y="1083" />
              <mxPoint x="1643" y="1083" />
            </Array>
          </mxGeometry>
        </mxCell>
        <mxCell id="zDNcXk9pmCtfYAZ4edZZ-98" value="Yes" style="edgeLabel;html=1;align=center;verticalAlign=middle;resizable=0;points=[];strokeColor=#028090;fontColor=#E4FDE1;fillColor=#F45B69;" parent="zDNcXk9pmCtfYAZ4edZZ-97" vertex="1" connectable="0">
          <mxGeometry x="-0.9273" y="2" relative="1" as="geometry">
            <mxPoint as="offset" />
          </mxGeometry>
        </mxCell>
        <mxCell id="_ZBO6iIKKOFlCHNLLO7m-30" value="" style="edgeStyle=orthogonalEdgeStyle;rounded=0;orthogonalLoop=1;jettySize=auto;html=1;" edge="1" parent="1" source="zDNcXk9pmCtfYAZ4edZZ-92" target="_ZBO6iIKKOFlCHNLLO7m-29">
          <mxGeometry relative="1" as="geometry" />
        </mxCell>
        <mxCell id="_ZBO6iIKKOFlCHNLLO7m-62" value="No" style="edgeLabel;html=1;align=center;verticalAlign=middle;resizable=0;points=[];" vertex="1" connectable="0" parent="_ZBO6iIKKOFlCHNLLO7m-30">
          <mxGeometry x="-0.125" relative="1" as="geometry">
            <mxPoint as="offset" />
          </mxGeometry>
        </mxCell>
        <mxCell id="zDNcXk9pmCtfYAZ4edZZ-92" value="Player selects &#39;quit&#39; from the menu" style="rhombus;whiteSpace=wrap;html=1;strokeColor=#028090;fontColor=#E4FDE1;fillColor=#F45B69;" parent="1" vertex="1">
          <mxGeometry x="997" y="844" width="119" height="126" as="geometry" />
        </mxCell>
        <mxCell id="_ZBO6iIKKOFlCHNLLO7m-7" value="" style="edgeStyle=orthogonalEdgeStyle;rounded=0;orthogonalLoop=1;jettySize=auto;html=1;" edge="1" parent="1" source="_ZBO6iIKKOFlCHNLLO7m-1" target="_ZBO6iIKKOFlCHNLLO7m-6">
          <mxGeometry relative="1" as="geometry" />
        </mxCell>
        <mxCell id="_ZBO6iIKKOFlCHNLLO7m-16" value="0" style="edgeLabel;html=1;align=center;verticalAlign=middle;resizable=0;points=[];" vertex="1" connectable="0" parent="_ZBO6iIKKOFlCHNLLO7m-7">
          <mxGeometry x="-0.1472" relative="1" as="geometry">
            <mxPoint as="offset" />
          </mxGeometry>
        </mxCell>
        <mxCell id="_ZBO6iIKKOFlCHNLLO7m-20" style="edgeStyle=orthogonalEdgeStyle;rounded=0;orthogonalLoop=1;jettySize=auto;html=1;" edge="1" parent="1" source="_ZBO6iIKKOFlCHNLLO7m-1" target="_ZBO6iIKKOFlCHNLLO7m-18">
          <mxGeometry relative="1" as="geometry">
            <Array as="points">
              <mxPoint x="636" y="682" />
            </Array>
          </mxGeometry>
        </mxCell>
        <mxCell id="_ZBO6iIKKOFlCHNLLO7m-21" value="1" style="edgeLabel;html=1;align=center;verticalAlign=middle;resizable=0;points=[];" vertex="1" connectable="0" parent="_ZBO6iIKKOFlCHNLLO7m-20">
          <mxGeometry x="-0.8807" relative="1" as="geometry">
            <mxPoint x="1" y="1" as="offset" />
          </mxGeometry>
        </mxCell>
        <mxCell id="_ZBO6iIKKOFlCHNLLO7m-25" style="edgeStyle=orthogonalEdgeStyle;rounded=0;orthogonalLoop=1;jettySize=auto;html=1;" edge="1" parent="1" source="_ZBO6iIKKOFlCHNLLO7m-1" target="_ZBO6iIKKOFlCHNLLO7m-23">
          <mxGeometry relative="1" as="geometry">
            <Array as="points">
              <mxPoint x="661" y="567" />
            </Array>
          </mxGeometry>
        </mxCell>
        <mxCell id="_ZBO6iIKKOFlCHNLLO7m-26" value="2" style="edgeLabel;html=1;align=center;verticalAlign=middle;resizable=0;points=[];" vertex="1" connectable="0" parent="_ZBO6iIKKOFlCHNLLO7m-25">
          <mxGeometry x="-0.906" relative="1" as="geometry">
            <mxPoint as="offset" />
          </mxGeometry>
        </mxCell>
        <mxCell id="_ZBO6iIKKOFlCHNLLO7m-1" value="Check janitorDialogueHint" style="rhombus;whiteSpace=wrap;html=1;fillColor=#F45B69;strokeColor=#028090;fontColor=#E4FDE1;" vertex="1" parent="1">
          <mxGeometry x="575" y="831.5" width="151" height="151" as="geometry" />
        </mxCell>
        <mxCell id="_ZBO6iIKKOFlCHNLLO7m-8" style="edgeStyle=orthogonalEdgeStyle;rounded=0;orthogonalLoop=1;jettySize=auto;html=1;" edge="1" parent="1" source="_ZBO6iIKKOFlCHNLLO7m-6" target="zDNcXk9pmCtfYAZ4edZZ-88">
          <mxGeometry relative="1" as="geometry">
            <Array as="points">
              <mxPoint x="420" y="994" />
            </Array>
          </mxGeometry>
        </mxCell>
        <mxCell id="_ZBO6iIKKOFlCHNLLO7m-10" value="0" style="edgeLabel;html=1;align=center;verticalAlign=middle;resizable=0;points=[];" vertex="1" connectable="0" parent="_ZBO6iIKKOFlCHNLLO7m-8">
          <mxGeometry x="-0.2442" relative="1" as="geometry">
            <mxPoint x="1" as="offset" />
          </mxGeometry>
        </mxCell>
        <mxCell id="_ZBO6iIKKOFlCHNLLO7m-14" style="edgeStyle=orthogonalEdgeStyle;rounded=0;orthogonalLoop=1;jettySize=auto;html=1;" edge="1" parent="1" source="_ZBO6iIKKOFlCHNLLO7m-6" target="_ZBO6iIKKOFlCHNLLO7m-12">
          <mxGeometry relative="1" as="geometry" />
        </mxCell>
        <mxCell id="_ZBO6iIKKOFlCHNLLO7m-15" value="2" style="edgeLabel;html=1;align=center;verticalAlign=middle;resizable=0;points=[];" vertex="1" connectable="0" parent="_ZBO6iIKKOFlCHNLLO7m-14">
          <mxGeometry x="-0.5238" y="-1" relative="1" as="geometry">
            <mxPoint x="1" as="offset" />
          </mxGeometry>
        </mxCell>
        <mxCell id="_ZBO6iIKKOFlCHNLLO7m-6" value="Check janitorDialogue" style="rhombus;whiteSpace=wrap;html=1;fillColor=#F45B69;strokeColor=#028090;fontColor=#E4FDE1;" vertex="1" parent="1">
          <mxGeometry x="362.5" y="850" width="114" height="114" as="geometry" />
        </mxCell>
        <mxCell id="_ZBO6iIKKOFlCHNLLO7m-11" value="" style="edgeStyle=orthogonalEdgeStyle;rounded=0;orthogonalLoop=1;jettySize=auto;html=1;strokeColor=#028090;fontColor=#E4FDE1;fillColor=#F45B69;" edge="1" parent="1" source="_ZBO6iIKKOFlCHNLLO7m-12" target="_ZBO6iIKKOFlCHNLLO7m-13">
          <mxGeometry relative="1" as="geometry" />
        </mxCell>
        <mxCell id="_ZBO6iIKKOFlCHNLLO7m-12" value="Dialogue Option 2" style="whiteSpace=wrap;html=1;fillColor=#F45B69;strokeColor=#028090;fontColor=#E4FDE1;rounded=0;" vertex="1" parent="1">
          <mxGeometry x="135" y="877" width="120" height="60" as="geometry" />
        </mxCell>
        <mxCell id="_ZBO6iIKKOFlCHNLLO7m-13" value="Unlock ability to interact with Haunted Bookshelf&lt;div&gt;[hauntedBookshelf = true]&lt;/div&gt;" style="whiteSpace=wrap;html=1;fillColor=#F45B69;strokeColor=#028090;fontColor=#E4FDE1;rounded=0;" vertex="1" parent="1">
          <mxGeometry x="-79" y="870" width="148" height="74" as="geometry" />
        </mxCell>
        <mxCell id="_ZBO6iIKKOFlCHNLLO7m-17" value="" style="edgeStyle=orthogonalEdgeStyle;rounded=0;orthogonalLoop=1;jettySize=auto;html=1;strokeColor=#028090;fontColor=#E4FDE1;fillColor=#F45B69;" edge="1" parent="1" source="_ZBO6iIKKOFlCHNLLO7m-18" target="_ZBO6iIKKOFlCHNLLO7m-19">
          <mxGeometry relative="1" as="geometry" />
        </mxCell>
        <mxCell id="_ZBO6iIKKOFlCHNLLO7m-18" value="Hint Dialogue Option 1" style="whiteSpace=wrap;html=1;fillColor=#F45B69;strokeColor=#028090;fontColor=#E4FDE1;rounded=0;" vertex="1" parent="1">
          <mxGeometry x="135" y="652" width="120" height="60" as="geometry" />
        </mxCell>
        <mxCell id="_ZBO6iIKKOFlCHNLLO7m-19" value="Unlock Dialogue Hint Option 2&lt;div&gt;[janitorDialogueHint = 2]&lt;/div&gt;" style="whiteSpace=wrap;html=1;fillColor=#F45B69;strokeColor=#028090;fontColor=#E4FDE1;rounded=0;" vertex="1" parent="1">
          <mxGeometry x="-65" y="652" width="120" height="60" as="geometry" />
        </mxCell>
        <mxCell id="_ZBO6iIKKOFlCHNLLO7m-23" value="Hint Dialogue Option 2" style="whiteSpace=wrap;html=1;fillColor=#F45B69;strokeColor=#028090;fontColor=#E4FDE1;rounded=0;" vertex="1" parent="1">
          <mxGeometry x="135" y="537" width="120" height="60" as="geometry" />
        </mxCell>
        <mxCell id="_ZBO6iIKKOFlCHNLLO7m-31" style="edgeStyle=orthogonalEdgeStyle;rounded=0;orthogonalLoop=1;jettySize=auto;html=1;" edge="1" parent="1" source="_ZBO6iIKKOFlCHNLLO7m-29" target="_ZBO6iIKKOFlCHNLLO7m-1">
          <mxGeometry relative="1" as="geometry" />
        </mxCell>
        <mxCell id="_ZBO6iIKKOFlCHNLLO7m-32" value="false" style="edgeLabel;html=1;align=center;verticalAlign=middle;resizable=0;points=[];" vertex="1" connectable="0" parent="_ZBO6iIKKOFlCHNLLO7m-31">
          <mxGeometry x="-0.1389" y="-3" relative="1" as="geometry">
            <mxPoint as="offset" />
          </mxGeometry>
        </mxCell>
        <mxCell id="_ZBO6iIKKOFlCHNLLO7m-34" value="" style="edgeStyle=orthogonalEdgeStyle;rounded=0;orthogonalLoop=1;jettySize=auto;html=1;" edge="1" parent="1" source="_ZBO6iIKKOFlCHNLLO7m-29" target="_ZBO6iIKKOFlCHNLLO7m-33">
          <mxGeometry relative="1" as="geometry" />
        </mxCell>
        <mxCell id="_ZBO6iIKKOFlCHNLLO7m-35" value="true" style="edgeLabel;html=1;align=center;verticalAlign=middle;resizable=0;points=[];" vertex="1" connectable="0" parent="_ZBO6iIKKOFlCHNLLO7m-34">
          <mxGeometry x="-0.2212" y="2" relative="1" as="geometry">
            <mxPoint x="1" as="offset" />
          </mxGeometry>
        </mxCell>
        <mxCell id="_ZBO6iIKKOFlCHNLLO7m-29" value="Check hasHauntedBook" style="rhombus;whiteSpace=wrap;html=1;strokeColor=#028090;fontColor=#E4FDE1;fillColor=#F45B69;" vertex="1" parent="1">
          <mxGeometry x="798" y="844" width="119" height="126" as="geometry" />
        </mxCell>
        <mxCell id="_ZBO6iIKKOFlCHNLLO7m-33" value="Final sequence after returning cursed book" style="whiteSpace=wrap;html=1;fillColor=#F45B69;strokeColor=#028090;fontColor=#E4FDE1;" vertex="1" parent="1">
          <mxGeometry x="797.5" y="671" width="120" height="60" as="geometry" />
        </mxCell>
        <mxCell id="_ZBO6iIKKOFlCHNLLO7m-44" value="" style="edgeStyle=orthogonalEdgeStyle;rounded=0;orthogonalLoop=1;jettySize=auto;html=1;" edge="1" parent="1" source="_ZBO6iIKKOFlCHNLLO7m-40" target="_ZBO6iIKKOFlCHNLLO7m-43">
          <mxGeometry relative="1" as="geometry" />
        </mxCell>
        <mxCell id="_ZBO6iIKKOFlCHNLLO7m-40" value="Talk to the mirror" style="rounded=0;whiteSpace=wrap;html=1;strokeColor=#028090;fontColor=#E4FDE1;fillColor=#F45B69;" vertex="1" parent="1">
          <mxGeometry x="1363" y="1640" width="120" height="60" as="geometry" />
        </mxCell>
        <mxCell id="_ZBO6iIKKOFlCHNLLO7m-46" value="" style="edgeStyle=orthogonalEdgeStyle;rounded=0;orthogonalLoop=1;jettySize=auto;html=1;" edge="1" parent="1" source="_ZBO6iIKKOFlCHNLLO7m-43" target="_ZBO6iIKKOFlCHNLLO7m-45">
          <mxGeometry relative="1" as="geometry" />
        </mxCell>
        <mxCell id="_ZBO6iIKKOFlCHNLLO7m-47" value="true" style="edgeLabel;html=1;align=center;verticalAlign=middle;resizable=0;points=[];" vertex="1" connectable="0" parent="_ZBO6iIKKOFlCHNLLO7m-46">
          <mxGeometry x="-0.1293" y="-1" relative="1" as="geometry">
            <mxPoint as="offset" />
          </mxGeometry>
        </mxCell>
        <mxCell id="_ZBO6iIKKOFlCHNLLO7m-49" value="" style="edgeStyle=orthogonalEdgeStyle;rounded=0;orthogonalLoop=1;jettySize=auto;html=1;" edge="1" parent="1" source="_ZBO6iIKKOFlCHNLLO7m-43" target="_ZBO6iIKKOFlCHNLLO7m-48">
          <mxGeometry relative="1" as="geometry" />
        </mxCell>
        <mxCell id="_ZBO6iIKKOFlCHNLLO7m-50" value="false" style="edgeLabel;html=1;align=center;verticalAlign=middle;resizable=0;points=[];" vertex="1" connectable="0" parent="_ZBO6iIKKOFlCHNLLO7m-49">
          <mxGeometry x="-0.1068" y="1" relative="1" as="geometry">
            <mxPoint as="offset" />
          </mxGeometry>
        </mxCell>
        <mxCell id="_ZBO6iIKKOFlCHNLLO7m-43" value="Check [interactMirror]" style="rhombus;whiteSpace=wrap;html=1;fillColor=#F45B69;strokeColor=#028090;fontColor=#E4FDE1;rounded=0;" vertex="1" parent="1">
          <mxGeometry x="1170" y="1617" width="106" height="106" as="geometry" />
        </mxCell>
        <mxCell id="_ZBO6iIKKOFlCHNLLO7m-45" value="Unlocked Mirror Interaction Sequence" style="whiteSpace=wrap;html=1;fillColor=#F45B69;strokeColor=#028090;fontColor=#E4FDE1;rounded=0;" vertex="1" parent="1">
          <mxGeometry x="1163" y="1826" width="120" height="60" as="geometry" />
        </mxCell>
        <mxCell id="_ZBO6iIKKOFlCHNLLO7m-48" value="Initial Interaction" style="whiteSpace=wrap;html=1;fillColor=#F45B69;strokeColor=#028090;fontColor=#E4FDE1;rounded=0;" vertex="1" parent="1">
          <mxGeometry x="1163" y="1454" width="120" height="60" as="geometry" />
        </mxCell>
        <mxCell id="_ZBO6iIKKOFlCHNLLO7m-56" value="" style="edgeStyle=orthogonalEdgeStyle;rounded=0;orthogonalLoop=1;jettySize=auto;html=1;" edge="1" parent="1" source="_ZBO6iIKKOFlCHNLLO7m-53" target="_ZBO6iIKKOFlCHNLLO7m-55">
          <mxGeometry relative="1" as="geometry" />
        </mxCell>
        <mxCell id="_ZBO6iIKKOFlCHNLLO7m-53" value="The player has now interacted with the Librarian&lt;div&gt;[interactLibrarian = True]&lt;/div&gt;" style="whiteSpace=wrap;html=1;fillColor=#F45B69;strokeColor=#028090;fontColor=#E4FDE1;rounded=0;" vertex="1" parent="1">
          <mxGeometry x="2261" y="1011" width="156" height="78" as="geometry" />
        </mxCell>
        <mxCell id="_ZBO6iIKKOFlCHNLLO7m-57" style="edgeStyle=orthogonalEdgeStyle;rounded=0;orthogonalLoop=1;jettySize=auto;html=1;" edge="1" parent="1" source="_ZBO6iIKKOFlCHNLLO7m-55" target="zDNcXk9pmCtfYAZ4edZZ-19">
          <mxGeometry relative="1" as="geometry">
            <Array as="points">
              <mxPoint x="2575" y="1291" />
            </Array>
          </mxGeometry>
        </mxCell>
        <mxCell id="_ZBO6iIKKOFlCHNLLO7m-58" value="Yes" style="edgeLabel;html=1;align=center;verticalAlign=middle;resizable=0;points=[];" vertex="1" connectable="0" parent="_ZBO6iIKKOFlCHNLLO7m-57">
          <mxGeometry x="-0.8739" relative="1" as="geometry">
            <mxPoint y="-1" as="offset" />
          </mxGeometry>
        </mxCell>
        <mxCell id="_ZBO6iIKKOFlCHNLLO7m-60" value="" style="edgeStyle=orthogonalEdgeStyle;rounded=0;orthogonalLoop=1;jettySize=auto;html=1;" edge="1" parent="1" source="_ZBO6iIKKOFlCHNLLO7m-55" target="_ZBO6iIKKOFlCHNLLO7m-59">
          <mxGeometry relative="1" as="geometry" />
        </mxCell>
        <mxCell id="_ZBO6iIKKOFlCHNLLO7m-61" value="No" style="edgeLabel;html=1;align=center;verticalAlign=middle;resizable=0;points=[];" vertex="1" connectable="0" parent="_ZBO6iIKKOFlCHNLLO7m-60">
          <mxGeometry x="-0.0963" y="-1" relative="1" as="geometry">
            <mxPoint as="offset" />
          </mxGeometry>
        </mxCell>
        <mxCell id="_ZBO6iIKKOFlCHNLLO7m-55" value="The player selects &#39;quit&#39; from the menu" style="rhombus;whiteSpace=wrap;html=1;fillColor=#F45B69;strokeColor=#028090;fontColor=#E4FDE1;rounded=0;" vertex="1" parent="1">
          <mxGeometry x="2506" y="981" width="138" height="138" as="geometry" />
        </mxCell>
        <mxCell id="_ZBO6iIKKOFlCHNLLO7m-64" value="" style="edgeStyle=orthogonalEdgeStyle;rounded=0;orthogonalLoop=1;jettySize=auto;html=1;" edge="1" parent="1" source="_ZBO6iIKKOFlCHNLLO7m-59" target="_ZBO6iIKKOFlCHNLLO7m-63">
          <mxGeometry relative="1" as="geometry" />
        </mxCell>
        <mxCell id="_ZBO6iIKKOFlCHNLLO7m-65" value="True" style="edgeLabel;html=1;align=center;verticalAlign=middle;resizable=0;points=[];" vertex="1" connectable="0" parent="_ZBO6iIKKOFlCHNLLO7m-64">
          <mxGeometry x="-0.0343" y="1" relative="1" as="geometry">
            <mxPoint y="-1" as="offset" />
          </mxGeometry>
        </mxCell>
        <mxCell id="_ZBO6iIKKOFlCHNLLO7m-70" value="" style="edgeStyle=orthogonalEdgeStyle;rounded=0;orthogonalLoop=1;jettySize=auto;html=1;" edge="1" parent="1" source="_ZBO6iIKKOFlCHNLLO7m-59" target="_ZBO6iIKKOFlCHNLLO7m-69">
          <mxGeometry relative="1" as="geometry" />
        </mxCell>
        <mxCell id="_ZBO6iIKKOFlCHNLLO7m-71" value="False" style="edgeLabel;html=1;align=center;verticalAlign=middle;resizable=0;points=[];" vertex="1" connectable="0" parent="_ZBO6iIKKOFlCHNLLO7m-70">
          <mxGeometry x="0.0761" y="1" relative="1" as="geometry">
            <mxPoint x="-1" as="offset" />
          </mxGeometry>
        </mxCell>
        <mxCell id="_ZBO6iIKKOFlCHNLLO7m-59" value="Check [lanternLit]" style="rhombus;whiteSpace=wrap;html=1;fillColor=#F45B69;strokeColor=#028090;fontColor=#E4FDE1;rounded=0;" vertex="1" parent="1">
          <mxGeometry x="2741" y="998" width="104" height="104" as="geometry" />
        </mxCell>
        <mxCell id="_ZBO6iIKKOFlCHNLLO7m-63" value="Final Sequence after lighting the lantern" style="whiteSpace=wrap;html=1;fillColor=#F45B69;strokeColor=#028090;fontColor=#E4FDE1;rounded=0;" vertex="1" parent="1">
          <mxGeometry x="2733" y="790" width="120" height="60" as="geometry" />
        </mxCell>
        <mxCell id="_ZBO6iIKKOFlCHNLLO7m-73" value="" style="edgeStyle=orthogonalEdgeStyle;rounded=0;orthogonalLoop=1;jettySize=auto;html=1;" edge="1" parent="1" source="_ZBO6iIKKOFlCHNLLO7m-69" target="_ZBO6iIKKOFlCHNLLO7m-72">
          <mxGeometry relative="1" as="geometry" />
        </mxCell>
        <mxCell id="_ZBO6iIKKOFlCHNLLO7m-75" value="0" style="edgeLabel;html=1;align=center;verticalAlign=middle;resizable=0;points=[];" vertex="1" connectable="0" parent="_ZBO6iIKKOFlCHNLLO7m-73">
          <mxGeometry x="0.0211" y="-2" relative="1" as="geometry">
            <mxPoint y="1" as="offset" />
          </mxGeometry>
        </mxCell>
        <mxCell id="_ZBO6iIKKOFlCHNLLO7m-77" value="" style="edgeStyle=orthogonalEdgeStyle;rounded=0;orthogonalLoop=1;jettySize=auto;html=1;" edge="1" parent="1" source="_ZBO6iIKKOFlCHNLLO7m-69" target="_ZBO6iIKKOFlCHNLLO7m-76">
          <mxGeometry relative="1" as="geometry">
            <Array as="points">
              <mxPoint x="2949" y="913" />
              <mxPoint x="2917" y="913" />
            </Array>
          </mxGeometry>
        </mxCell>
        <mxCell id="_ZBO6iIKKOFlCHNLLO7m-78" value="1" style="edgeLabel;html=1;align=center;verticalAlign=middle;resizable=0;points=[];" vertex="1" connectable="0" parent="_ZBO6iIKKOFlCHNLLO7m-77">
          <mxGeometry x="-0.2177" y="-2" relative="1" as="geometry">
            <mxPoint as="offset" />
          </mxGeometry>
        </mxCell>
        <mxCell id="_ZBO6iIKKOFlCHNLLO7m-80" value="" style="edgeStyle=orthogonalEdgeStyle;rounded=0;orthogonalLoop=1;jettySize=auto;html=1;" edge="1" parent="1" source="_ZBO6iIKKOFlCHNLLO7m-69" target="_ZBO6iIKKOFlCHNLLO7m-79">
          <mxGeometry relative="1" as="geometry">
            <Array as="points">
              <mxPoint x="3008" y="913" />
              <mxPoint x="3051" y="913" />
            </Array>
          </mxGeometry>
        </mxCell>
        <mxCell id="_ZBO6iIKKOFlCHNLLO7m-81" value="2" style="edgeLabel;html=1;align=center;verticalAlign=middle;resizable=0;points=[];" vertex="1" connectable="0" parent="_ZBO6iIKKOFlCHNLLO7m-80">
          <mxGeometry x="-0.2375" y="1" relative="1" as="geometry">
            <mxPoint as="offset" />
          </mxGeometry>
        </mxCell>
        <mxCell id="_ZBO6iIKKOFlCHNLLO7m-69" value="Check [librarianDialogueHint]" style="rhombus;whiteSpace=wrap;html=1;fillColor=#F45B69;strokeColor=#028090;fontColor=#E4FDE1;rounded=0;" vertex="1" parent="1">
          <mxGeometry x="2903" y="976" width="148" height="148" as="geometry" />
        </mxCell>
        <mxCell id="_ZBO6iIKKOFlCHNLLO7m-83" value="" style="edgeStyle=orthogonalEdgeStyle;rounded=0;orthogonalLoop=1;jettySize=auto;html=1;" edge="1" parent="1" source="_ZBO6iIKKOFlCHNLLO7m-72" target="_ZBO6iIKKOFlCHNLLO7m-82">
          <mxGeometry relative="1" as="geometry" />
        </mxCell>
        <mxCell id="_ZBO6iIKKOFlCHNLLO7m-84" value="0" style="edgeLabel;html=1;align=center;verticalAlign=middle;resizable=0;points=[];" vertex="1" connectable="0" parent="_ZBO6iIKKOFlCHNLLO7m-83">
          <mxGeometry x="-0.1646" y="3" relative="1" as="geometry">
            <mxPoint as="offset" />
          </mxGeometry>
        </mxCell>
        <mxCell id="_ZBO6iIKKOFlCHNLLO7m-87" value="" style="edgeStyle=orthogonalEdgeStyle;rounded=0;orthogonalLoop=1;jettySize=auto;html=1;" edge="1" parent="1" source="_ZBO6iIKKOFlCHNLLO7m-72" target="_ZBO6iIKKOFlCHNLLO7m-82">
          <mxGeometry relative="1" as="geometry" />
        </mxCell>
        <mxCell id="_ZBO6iIKKOFlCHNLLO7m-89" value="" style="edgeStyle=orthogonalEdgeStyle;rounded=0;orthogonalLoop=1;jettySize=auto;html=1;" edge="1" parent="1" source="_ZBO6iIKKOFlCHNLLO7m-72" target="_ZBO6iIKKOFlCHNLLO7m-88">
          <mxGeometry relative="1" as="geometry" />
        </mxCell>
        <mxCell id="_ZBO6iIKKOFlCHNLLO7m-90" value="2" style="edgeLabel;html=1;align=center;verticalAlign=middle;resizable=0;points=[];" vertex="1" connectable="0" parent="_ZBO6iIKKOFlCHNLLO7m-89">
          <mxGeometry x="-0.0249" relative="1" as="geometry">
            <mxPoint as="offset" />
          </mxGeometry>
        </mxCell>
        <mxCell id="_ZBO6iIKKOFlCHNLLO7m-93" value="" style="edgeStyle=orthogonalEdgeStyle;rounded=0;orthogonalLoop=1;jettySize=auto;html=1;" edge="1" parent="1" source="_ZBO6iIKKOFlCHNLLO7m-72" target="_ZBO6iIKKOFlCHNLLO7m-88">
          <mxGeometry relative="1" as="geometry" />
        </mxCell>
        <mxCell id="_ZBO6iIKKOFlCHNLLO7m-95" value="" style="edgeStyle=orthogonalEdgeStyle;rounded=0;orthogonalLoop=1;jettySize=auto;html=1;" edge="1" parent="1" source="_ZBO6iIKKOFlCHNLLO7m-72" target="_ZBO6iIKKOFlCHNLLO7m-94">
          <mxGeometry relative="1" as="geometry">
            <Array as="points">
              <mxPoint x="3302" y="1050" />
              <mxPoint x="3302" y="1253" />
            </Array>
          </mxGeometry>
        </mxCell>
        <mxCell id="_ZBO6iIKKOFlCHNLLO7m-96" value="3" style="edgeLabel;html=1;align=center;verticalAlign=middle;resizable=0;points=[];" vertex="1" connectable="0" parent="_ZBO6iIKKOFlCHNLLO7m-95">
          <mxGeometry x="0.0537" y="-1" relative="1" as="geometry">
            <mxPoint as="offset" />
          </mxGeometry>
        </mxCell>
        <mxCell id="_ZBO6iIKKOFlCHNLLO7m-72" value="Check [librarianDialogue]" style="rhombus;whiteSpace=wrap;html=1;fillColor=#F45B69;strokeColor=#028090;fontColor=#E4FDE1;rounded=0;" vertex="1" parent="1">
          <mxGeometry x="3146" y="991" width="118" height="118" as="geometry" />
        </mxCell>
        <mxCell id="_ZBO6iIKKOFlCHNLLO7m-76" value="Hint Dialogue option 1" style="whiteSpace=wrap;html=1;fillColor=#F45B69;strokeColor=#028090;fontColor=#E4FDE1;rounded=0;" vertex="1" parent="1">
          <mxGeometry x="2857" y="790" width="120" height="60" as="geometry" />
        </mxCell>
        <mxCell id="_ZBO6iIKKOFlCHNLLO7m-79" value="Hint Dialogue Option 2" style="whiteSpace=wrap;html=1;fillColor=#F45B69;strokeColor=#028090;fontColor=#E4FDE1;rounded=0;" vertex="1" parent="1">
          <mxGeometry x="2991" y="790" width="120" height="60" as="geometry" />
        </mxCell>
        <mxCell id="_ZBO6iIKKOFlCHNLLO7m-86" value="" style="edgeStyle=orthogonalEdgeStyle;rounded=0;orthogonalLoop=1;jettySize=auto;html=1;" edge="1" parent="1" source="_ZBO6iIKKOFlCHNLLO7m-82" target="_ZBO6iIKKOFlCHNLLO7m-85">
          <mxGeometry relative="1" as="geometry" />
        </mxCell>
        <mxCell id="_ZBO6iIKKOFlCHNLLO7m-82" value="Initial dialogue option" style="whiteSpace=wrap;html=1;fillColor=#F45B69;strokeColor=#028090;fontColor=#E4FDE1;rounded=0;" vertex="1" parent="1">
          <mxGeometry x="3343" y="955" width="120" height="60" as="geometry" />
        </mxCell>
        <mxCell id="_ZBO6iIKKOFlCHNLLO7m-85" value="Unlock Dialogue option 2&lt;div&gt;[librarianDialogue = 2]&lt;/div&gt;" style="whiteSpace=wrap;html=1;fillColor=#F45B69;strokeColor=#028090;fontColor=#E4FDE1;rounded=0;" vertex="1" parent="1">
          <mxGeometry x="3545" y="955" width="120" height="60" as="geometry" />
        </mxCell>
        <mxCell id="_ZBO6iIKKOFlCHNLLO7m-92" value="" style="edgeStyle=orthogonalEdgeStyle;rounded=0;orthogonalLoop=1;jettySize=auto;html=1;" edge="1" parent="1" source="_ZBO6iIKKOFlCHNLLO7m-88" target="_ZBO6iIKKOFlCHNLLO7m-91">
          <mxGeometry relative="1" as="geometry" />
        </mxCell>
        <mxCell id="_ZBO6iIKKOFlCHNLLO7m-88" value="Dialogue option 2" style="whiteSpace=wrap;html=1;fillColor=#F45B69;strokeColor=#028090;fontColor=#E4FDE1;rounded=0;" vertex="1" parent="1">
          <mxGeometry x="3343" y="1089" width="120" height="60" as="geometry" />
        </mxCell>
        <mxCell id="_ZBO6iIKKOFlCHNLLO7m-100" value="" style="edgeStyle=orthogonalEdgeStyle;rounded=0;orthogonalLoop=1;jettySize=auto;html=1;" edge="1" parent="1" source="_ZBO6iIKKOFlCHNLLO7m-91" target="_ZBO6iIKKOFlCHNLLO7m-99">
          <mxGeometry relative="1" as="geometry" />
        </mxCell>
        <mxCell id="_ZBO6iIKKOFlCHNLLO7m-91" value="Unlock Dialogue Option 3&lt;div&gt;[librarianDialogue = 3]&lt;/div&gt;" style="whiteSpace=wrap;html=1;fillColor=#F45B69;strokeColor=#028090;fontColor=#E4FDE1;rounded=0;" vertex="1" parent="1">
          <mxGeometry x="3543" y="1089" width="120" height="60" as="geometry" />
        </mxCell>
        <mxCell id="_ZBO6iIKKOFlCHNLLO7m-98" value="" style="edgeStyle=orthogonalEdgeStyle;rounded=0;orthogonalLoop=1;jettySize=auto;html=1;" edge="1" parent="1" source="_ZBO6iIKKOFlCHNLLO7m-94" target="_ZBO6iIKKOFlCHNLLO7m-97">
          <mxGeometry relative="1" as="geometry" />
        </mxCell>
        <mxCell id="_ZBO6iIKKOFlCHNLLO7m-94" value="Dialogue option 3" style="whiteSpace=wrap;html=1;fillColor=#F45B69;strokeColor=#028090;fontColor=#E4FDE1;rounded=0;" vertex="1" parent="1">
          <mxGeometry x="3343" y="1223" width="120" height="60" as="geometry" />
        </mxCell>
        <mxCell id="_ZBO6iIKKOFlCHNLLO7m-97" value="Unlocks hint dialogue option 1&lt;div&gt;[librarianDialogueHint = 1]&lt;/div&gt;" style="whiteSpace=wrap;html=1;fillColor=#F45B69;strokeColor=#028090;fontColor=#E4FDE1;rounded=0;" vertex="1" parent="1">
          <mxGeometry x="3543" y="1223" width="120" height="60" as="geometry" />
        </mxCell>
        <mxCell id="_ZBO6iIKKOFlCHNLLO7m-99" value="Unlocks interaction with spirits Lantern&lt;div&gt;[spiritLanternInteractable = true]&lt;/div&gt;" style="whiteSpace=wrap;html=1;fillColor=#F45B69;strokeColor=#028090;fontColor=#E4FDE1;rounded=0;" vertex="1" parent="1">
          <mxGeometry x="3730" y="1082.5" width="146" height="73" as="geometry" />
        </mxCell>
        <mxCell id="_ZBO6iIKKOFlCHNLLO7m-105" value="" style="edgeStyle=orthogonalEdgeStyle;rounded=0;orthogonalLoop=1;jettySize=auto;html=1;" edge="1" parent="1" source="_ZBO6iIKKOFlCHNLLO7m-101" target="_ZBO6iIKKOFlCHNLLO7m-104">
          <mxGeometry relative="1" as="geometry" />
        </mxCell>
        <mxCell id="_ZBO6iIKKOFlCHNLLO7m-101" value="Interact with Lantern" style="rounded=0;whiteSpace=wrap;html=1;strokeColor=#028090;fontColor=#E4FDE1;fillColor=#F45B69;" vertex="1" parent="1">
          <mxGeometry x="1711" y="790" width="120" height="60" as="geometry" />
        </mxCell>
        <mxCell id="_ZBO6iIKKOFlCHNLLO7m-107" value="" style="edgeStyle=orthogonalEdgeStyle;rounded=0;orthogonalLoop=1;jettySize=auto;html=1;" edge="1" parent="1" source="_ZBO6iIKKOFlCHNLLO7m-104" target="_ZBO6iIKKOFlCHNLLO7m-106">
          <mxGeometry relative="1" as="geometry" />
        </mxCell>
        <mxCell id="_ZBO6iIKKOFlCHNLLO7m-108" value="true" style="edgeLabel;html=1;align=center;verticalAlign=middle;resizable=0;points=[];" vertex="1" connectable="0" parent="_ZBO6iIKKOFlCHNLLO7m-107">
          <mxGeometry x="-0.1333" y="1" relative="1" as="geometry">
            <mxPoint as="offset" />
          </mxGeometry>
        </mxCell>
        <mxCell id="_ZBO6iIKKOFlCHNLLO7m-110" value="" style="edgeStyle=orthogonalEdgeStyle;rounded=0;orthogonalLoop=1;jettySize=auto;html=1;" edge="1" parent="1" source="_ZBO6iIKKOFlCHNLLO7m-104" target="_ZBO6iIKKOFlCHNLLO7m-113">
          <mxGeometry relative="1" as="geometry">
            <mxPoint x="1771" y="550" as="targetPoint" />
          </mxGeometry>
        </mxCell>
        <mxCell id="_ZBO6iIKKOFlCHNLLO7m-111" value="false" style="edgeLabel;html=1;align=center;verticalAlign=middle;resizable=0;points=[];" vertex="1" connectable="0" parent="_ZBO6iIKKOFlCHNLLO7m-110">
          <mxGeometry x="0.1" y="1" relative="1" as="geometry">
            <mxPoint as="offset" />
          </mxGeometry>
        </mxCell>
        <mxCell id="_ZBO6iIKKOFlCHNLLO7m-104" value="Check lanternLit" style="rhombus;whiteSpace=wrap;html=1;fillColor=#F45B69;strokeColor=#028090;fontColor=#E4FDE1;rounded=0;" vertex="1" parent="1">
          <mxGeometry x="1731" y="640" width="80" height="80" as="geometry" />
        </mxCell>
        <mxCell id="_ZBO6iIKKOFlCHNLLO7m-106" value="&quot;The lantern burns bright&quot;" style="whiteSpace=wrap;html=1;fillColor=#F45B69;strokeColor=#028090;fontColor=#E4FDE1;rounded=0;" vertex="1" parent="1">
          <mxGeometry x="1871" y="650" width="120" height="60" as="geometry" />
        </mxCell>
        <mxCell id="_ZBO6iIKKOFlCHNLLO7m-115" value="" style="edgeStyle=orthogonalEdgeStyle;rounded=0;orthogonalLoop=1;jettySize=auto;html=1;" edge="1" parent="1" source="_ZBO6iIKKOFlCHNLLO7m-113" target="_ZBO6iIKKOFlCHNLLO7m-114">
          <mxGeometry relative="1" as="geometry" />
        </mxCell>
        <mxCell id="_ZBO6iIKKOFlCHNLLO7m-116" value="True" style="edgeLabel;html=1;align=center;verticalAlign=middle;resizable=0;points=[];" vertex="1" connectable="0" parent="_ZBO6iIKKOFlCHNLLO7m-115">
          <mxGeometry x="-0.1279" y="-2" relative="1" as="geometry">
            <mxPoint as="offset" />
          </mxGeometry>
        </mxCell>
        <mxCell id="_ZBO6iIKKOFlCHNLLO7m-118" value="" style="edgeStyle=orthogonalEdgeStyle;rounded=0;orthogonalLoop=1;jettySize=auto;html=1;" edge="1" parent="1" source="_ZBO6iIKKOFlCHNLLO7m-113" target="_ZBO6iIKKOFlCHNLLO7m-117">
          <mxGeometry relative="1" as="geometry" />
        </mxCell>
        <mxCell id="_ZBO6iIKKOFlCHNLLO7m-119" value="False" style="edgeLabel;html=1;align=center;verticalAlign=middle;resizable=0;points=[];" vertex="1" connectable="0" parent="_ZBO6iIKKOFlCHNLLO7m-118">
          <mxGeometry x="-0.0287" y="-3" relative="1" as="geometry">
            <mxPoint as="offset" />
          </mxGeometry>
        </mxCell>
        <mxCell id="_ZBO6iIKKOFlCHNLLO7m-113" value="Check if cursed book is on pedestal&lt;div&gt;[pedestalOccupied]&lt;/div&gt;" style="rhombus;whiteSpace=wrap;html=1;fillColor=#F45B69;strokeColor=#028090;fontColor=#E4FDE1;rounded=0;" vertex="1" parent="1">
          <mxGeometry x="1705" y="416" width="132" height="132" as="geometry" />
        </mxCell>
        <mxCell id="_ZBO6iIKKOFlCHNLLO7m-114" value="Light the lantern by muttering the curse learned from reading the cursed book" style="whiteSpace=wrap;html=1;fillColor=#F45B69;strokeColor=#028090;fontColor=#E4FDE1;rounded=0;" vertex="1" parent="1">
          <mxGeometry x="1923" y="452" width="120" height="60" as="geometry" />
        </mxCell>
        <mxCell id="_ZBO6iIKKOFlCHNLLO7m-117" value="&quot;Its a cold, dark lantern&quot;" style="whiteSpace=wrap;html=1;fillColor=#F45B69;strokeColor=#028090;fontColor=#E4FDE1;rounded=0;" vertex="1" parent="1">
          <mxGeometry x="1711" y="240" width="120" height="60" as="geometry" />
        </mxCell>
      </root>
    </mxGraphModel>
  </diagram>
</mxfile>
